<svg xmlns="http://www.w3.org/2000/svg" viewBox="0 0 346 64" width="346" height="64" role="img" aria-label="ArcaneBoost">
  <defs>
    <linearGradient id="ab-g" x1="0" y1="0" x2="1" y2="1">
      <stop offset="0" stop-color="#9a7dff"/>
      <stop offset="0.55" stop-color="#6a45f5"/>
      <stop offset="1" stop-color="#e03bbe"/>
    </linearGradient>
    <linearGradient id="ab-t" x1="0" y1="0" x2="1" y2="0">
      <stop offset="0" stop-color="#b3a1ff"/>
      <stop offset="1" stop-color="#ec5fd0"/>
    </linearGradient>
  </defs>
  <rect x="0" y="0" width="64" height="64" rx="16" fill="url(#ab-g)"/>
  <rect x="1" y="1" width="62" height="31" rx="15" fill="#fff" opacity="0.08"/>
  <path d="M17 47 L32 16 L47 47" fill="none" stroke="#fff" stroke-width="7" stroke-linecap="round" stroke-linejoin="round"/>
  <path d="M32 31 L36 37 L32 43 L28 37 Z" fill="#b6f24a"/>
  <path d="M78.32 46.0 87.68 16.8H99.6L109.28 46.0H101.6L94.08 22.0L96.2 22.8H90.92L93.08 22.0L85.76 46.0ZM85.96 39.24 88.2 33.16H99.28L101.52 39.24Z M111.44 46.0V23.919999999999998H117.2V33.519999999999996H117.12Q117.12 28.88 119.06 26.24Q121.0 23.599999999999998 124.64 23.599999999999998H125.52V29.84H123.84Q121.39999999999999 29.84 120.06 31.160000000000004Q118.72 32.480000000000004 118.72 34.96V46.0Z M137.68 46.8Q134.79999999999998 46.8 132.68 45.86Q130.56 44.92 129.14 43.32Q127.72 41.72 127.02 39.68Q126.32 37.64 126.32 35.44V34.64Q126.32 32.32 127.06 30.240000000000002Q127.8 28.16 129.24 26.560000000000002Q130.68 24.96 132.8 24.04Q134.92 23.12 137.68 23.12Q140.72 23.12 143.04 24.32Q145.35999999999999 25.52 146.74 27.619999999999997Q148.12 29.72 148.28 32.44H141.16Q141.04 31.119999999999997 140.18 30.2Q139.32 29.28 137.68 29.28Q136.28 29.28 135.38 30.0Q134.48 30.72 134.04 32.0Q133.6 33.28 133.6 35.04Q133.6 36.68 133.98 37.96Q134.35999999999999 39.24 135.26 39.94Q136.16 40.64 137.68 40.64Q138.79999999999998 40.64 139.56 40.24Q140.32 39.84 140.76 39.1Q141.2 38.36 141.32 37.36H148.44Q148.28 40.16 146.86 42.28Q145.44 44.4 143.07999999999998 45.599999999999994Q140.72 46.8 137.68 46.8Z M164.68 46.0V39.519999999999996H163.48000000000002V32.6Q163.48000000000002 31.08 162.78000000000003 30.34Q162.08 29.6 160.48000000000002 29.6Q159.72 29.6 158.24 29.64Q156.76000000000002 29.68 155.12 29.759999999999998Q153.48000000000002 29.84 152.12 29.919999999999998V23.84Q153.08 23.759999999999998 154.4 23.68Q155.72 23.599999999999998 157.14 23.56Q158.56 23.52 159.76000000000002 23.52Q163.16 23.52 165.54000000000002 24.52Q167.92000000000002 25.52 169.18 27.52Q170.44 29.52 170.44 32.6V46.0ZM157.68 46.56Q155.36 46.56 153.56 45.72Q151.76000000000002 44.88 150.74 43.3Q149.72 41.72 149.72 39.519999999999996Q149.72 37.04 151.04000000000002 35.5Q152.36 33.96 154.68 33.239999999999995Q157.0 32.519999999999996 160.0 32.519999999999996H164.28V36.28H160.0Q158.52 36.28 157.72000000000003 37.019999999999996Q156.92000000000002 37.76 156.92000000000002 39.0Q156.92000000000002 40.2 157.72000000000003 40.94Q158.52 41.68 160.0 41.68Q160.96 41.68 161.7 41.34Q162.44 41.0 162.92000000000002 40.16Q163.4 39.32 163.48000000000002 37.84L165.16 39.44Q164.96 41.72 164.06 43.3Q163.16 44.88 161.57999999999998 45.72Q160.0 46.56 157.68 46.56Z M174.51999999999998 46.0V23.919999999999998H180.28V33.4H179.96Q179.96 29.96 180.84 27.700000000000003Q181.72 25.44 183.45999999999998 24.32Q185.2 23.2 187.68 23.2H188.0Q191.76 23.2 193.82 25.7Q195.88 28.2 195.88 33.36V46.0H188.6V33.16Q188.6 31.64 187.7 30.66Q186.79999999999998 29.68 185.24 29.68Q183.68 29.68 182.74 30.66Q181.79999999999998 31.64 181.79999999999998 33.24V46.0Z M210.32 46.8Q207.51999999999998 46.8 205.35999999999999 45.84Q203.2 44.88 201.71999999999997 43.24Q200.23999999999998 41.6 199.45999999999998 39.56Q198.68 37.519999999999996 198.68 35.36V34.56Q198.68 32.32 199.45999999999998 30.259999999999998Q200.23999999999998 28.2 201.7 26.6Q203.16 25.0 205.28 24.060000000000002Q207.4 23.12 210.07999999999998 23.12Q213.64 23.12 216.12 24.72Q218.6 26.32 219.92000000000002 28.94Q221.24 31.560000000000002 221.24 34.64V36.96H201.72V33.04H217.04L214.51999999999998 34.8Q214.51999999999998 32.92 214.01999999999998 31.62Q213.51999999999998 30.32 212.54 29.64Q211.56 28.96 210.07999999999998 28.96Q208.64 28.96 207.57999999999998 29.62Q206.51999999999998 30.28 205.95999999999998 31.62Q205.4 32.96 205.4 35.0Q205.4 36.84 205.92000000000002 38.18Q206.44 39.519999999999996 207.51999999999998 40.239999999999995Q208.6 40.96 210.32 40.96Q211.84 40.96 212.82 40.44Q213.79999999999998 39.92 214.2 39.04H220.84Q220.35999999999999 41.28 218.94 43.04Q217.51999999999998 44.8 215.33999999999997 45.8Q213.16 46.8 210.32 46.8Z" fill="#ffffff"/>
  <path d="M232.0 46.24V40.56H238.44Q240.07999999999998 40.56 240.88 39.72Q241.67999999999998 38.88 241.67999999999998 37.28Q241.67999999999998 35.68 240.88 34.86Q240.07999999999998 34.04 238.44 34.04H232.0V29.64H238.2Q241.27999999999997 29.64 243.71999999999997 30.38Q246.16 31.119999999999997 247.56 32.8Q248.95999999999998 34.480000000000004 248.95999999999998 37.28V37.84Q248.95999999999998 40.48 247.71999999999997 42.36Q246.48 44.24 244.07999999999998 45.24Q241.67999999999998 46.24 238.2 46.24ZM225.6 46.24V16.56H232.79999999999998V46.24ZM232.0 32.92V28.52H237.35999999999999Q239.0 28.52 239.74 27.7Q240.48 26.88 240.48 25.4Q240.48 23.88 239.74 23.06Q239.0 22.24 237.35999999999999 22.24H232.0V16.56H237.04Q242.16 16.56 244.95999999999998 18.7Q247.76 20.84 247.76 24.8V25.4Q247.76 28.16 246.33999999999997 29.82Q244.92 31.48 242.5 32.2Q240.07999999999998 32.92 237.04 32.92Z M263.32 46.8Q260.4 46.8 258.12 45.92Q255.83999999999997 45.04 254.26 43.480000000000004Q252.67999999999998 41.92 251.85999999999999 39.88Q251.04 37.84 251.04 35.519999999999996V34.56Q251.04 32.16 251.89999999999998 30.08Q252.76 28.0 254.35999999999999 26.439999999999998Q255.95999999999998 24.88 258.24 24.0Q260.52 23.12 263.32 23.12Q266.15999999999997 23.12 268.41999999999996 24.0Q270.67999999999995 24.88 272.28 26.439999999999998Q273.88 28.0 274.74 30.08Q275.59999999999997 32.16 275.59999999999997 34.56V35.519999999999996Q275.59999999999997 37.84 274.78 39.88Q273.96 41.92 272.38 43.480000000000004Q270.79999999999995 45.04 268.52 45.92Q266.23999999999995 46.8 263.32 46.8ZM263.32 40.72Q265.0 40.72 266.1 40.0Q267.2 39.28 267.76 37.980000000000004Q268.32 36.68 268.32 35.04Q268.32 33.32 267.74 32.019999999999996Q267.15999999999997 30.72 266.03999999999996 29.96Q264.91999999999996 29.2 263.32 29.2Q261.71999999999997 29.2 260.59999999999997 29.96Q259.47999999999996 30.72 258.9 32.019999999999996Q258.32 33.32 258.32 35.04Q258.32 36.68 258.88 37.980000000000004Q259.44 39.28 260.55999999999995 40.0Q261.67999999999995 40.72 263.32 40.72Z M289.79999999999995 46.8Q286.88 46.8 284.6 45.92Q282.32 45.04 280.74 43.480000000000004Q279.15999999999997 41.92 278.34 39.88Q277.52 37.84 277.52 35.519999999999996V34.56Q277.52 32.16 278.38 30.08Q279.23999999999995 28.0 280.8399999999999 26.439999999999998Q282.43999999999994 24.88 284.7199999999999 24.0Q286.99999999999994 23.12 289.79999999999995 23.12Q292.64 23.12 294.9 24.0Q297.15999999999997 24.88 298.76 26.439999999999998Q300.35999999999996 28.0 301.21999999999997 30.08Q302.08 32.16 302.08 34.56V35.519999999999996Q302.08 37.84 301.26 39.88Q300.43999999999994 41.92 298.85999999999996 43.480000000000004Q297.28 45.04 295.0 45.92Q292.71999999999997 46.8 289.79999999999995 46.8ZM289.79999999999995 40.72Q291.47999999999996 40.72 292.5799999999999 40.0Q293.67999999999995 39.28 294.23999999999995 37.980000000000004Q294.79999999999995 36.68 294.79999999999995 35.04Q294.79999999999995 33.32 294.21999999999997 32.019999999999996Q293.64 30.72 292.52 29.96Q291.4 29.2 289.79999999999995 29.2Q288.2 29.2 287.08 29.96Q285.96 30.72 285.38 32.019999999999996Q284.79999999999995 33.32 284.79999999999995 35.04Q284.79999999999995 36.68 285.35999999999996 37.980000000000004Q285.91999999999996 39.28 287.03999999999996 40.0Q288.15999999999997 40.72 289.79999999999995 40.72Z M314.03999999999996 46.72Q309.24 46.72 306.48 44.739999999999995Q303.71999999999997 42.76 303.52 39.16H309.91999999999996Q310.08 40.16 311.15999999999997 40.879999999999995Q312.24 41.6 314.2 41.6Q315.59999999999997 41.6 316.62 41.18Q317.64 40.76 317.64 39.8Q317.64 38.96 316.84 38.42Q316.03999999999996 37.879999999999995 313.91999999999996 37.68L312.4 37.519999999999996Q308.15999999999997 37.08 306.15999999999997 35.2Q304.15999999999997 33.32 304.15999999999997 30.48Q304.15999999999997 28.04 305.36 26.46Q306.56 24.88 308.68 24.08Q310.8 23.28 313.52 23.28Q317.96 23.28 320.67999999999995 25.22Q323.4 27.16 323.56 30.799999999999997H317.15999999999997Q317.0 29.8 316.08 29.1Q315.15999999999997 28.4 313.44 28.4Q312.2 28.4 311.41999999999996 28.84Q310.64 29.28 310.64 30.08Q310.64 30.92 311.38 31.32Q312.12 31.72 313.76 31.92L315.28 32.08Q319.52 32.519999999999996 321.82 34.42Q324.12 36.32 324.12 39.4Q324.12 41.68 322.9 43.32Q321.68 44.96 319.41999999999996 45.84Q317.15999999999997 46.72 314.03999999999996 46.72Z M337.48 46.32Q333.88 46.32 331.74 45.44Q329.59999999999997 44.56 328.64 42.519999999999996Q327.68 40.48 327.68 37.0L327.71999999999997 18.16H334.44L334.4 37.2Q334.4 38.68 335.17999999999995 39.46Q335.96 40.24 337.44 40.24H340.48V46.32ZM324.48 29.2V23.919999999999998H340.48V29.2Z" fill="url(#ab-t)"/>
</svg>
